<?xml version="1.0" encoding="UTF-8"?>
<svg width="26.46mm" height="26.46mm" version="1.1" viewBox="0 0 26.46 26.46" xmlns="http://www.w3.org/2000/svg"><path d="m17.143 0.35705c-7.1283 0-12.92 5.7921-12.92 12.92 0 7.1284 5.7921 12.92 12.92 12.92 1.8386 0 3.5858-0.38934 5.1696-1.0815 0.22351-0.09854 0.36771-0.31965 0.36771-0.56479s-0.1442-0.46625-0.36771-0.56479c-4.1266-1.8025-7.0154-5.9123-7.0154-10.709 0-4.7971 2.8888-8.9068 7.0154-10.709 0.22351-0.098537 0.36771-0.31965 0.36771-0.56479 0-0.24514-0.1442-0.46625-0.36771-0.56479-1.5838-0.69217-3.331-1.0815-5.1696-1.0815zm0 1.2305c1.2209 0 2.3721 0.24514 3.4801 0.59603-3.8766 2.2303-6.5564 6.3064-6.5564 11.094 0 4.7875 2.6797 8.8636 6.5564 11.094-1.1079 0.35089-2.2592 0.59603-3.4801 0.59603-6.4626 0-11.69-5.2273-11.69-11.69 0-6.4626 5.2273-11.69 11.69-11.69z" stroke-width=".61526"/></svg>
