<svg width="13" height="8.328" version="1.1" viewBox="0 5.5 13 8.328" xmlns="http://www.w3.org/2000/svg"><g id="a" transform="matrix(.4062 0 0 .4062 .00021081 3.2661)"><path d="m12.202 11.193 3.1e-4 -0.0011 6.7176 4.0238 4.0029-1.6845 1.8e-4 6.8e-4a6.4768 6.4768 0 0 1 2.5765-0.53178c0.14764 0 0.29358 0.0067 0.43878 0.01639a10.001 10.001 0 0 0-18.041-3.0138c0.03422-4.3e-4 0.06792-0.0026 0.10222-0.0026a7.9607 7.9607 0 0 1 4.2024 1.1929z" fill="#0364b8"/><path d="m12.203 11.192-3.1e-4 0.0011a7.9607 7.9607 0 0 0-4.2024-1.1929c-0.0343 0-0.06805 0.0022-0.10223 0.0026a7.9968 7.9968 0 0 0-6.4604 12.57l17.483-7.3572z" fill="#0078d4"/><path d="m25.939 13.016c-0.1452-0.0097-0.29114-0.01639-0.43878-0.01639a6.4768 6.4768 0 0 0-2.5765 0.53178l-1.8e-4 -6.8e-4 -4.0029 1.6845 1.1608 0.69528 11.141 6.6736a6.5002 6.5002 0 0 0-5.2838-9.568z" fill="#1490df"/><path d="m25.546 19.184-6.6258-3.9688-17.483 7.3572a7.9889 7.9889 0 0 0 6.5627 3.4272h17.5a6.4984 6.4984 0 0 0 5.7225-3.4156z" fill="#28a8ea"/></g></svg>
