<svg width="26.46mm" height="26.46mm" version="1.1" viewBox="0 0 26.46 26.46" xmlns="http://www.w3.org/2000/svg"><path d="m13.242 0.27447c-0.02672 0.004856-0.05345 0.012147-0.07774 0.019435-0.2891 0.065594-0.49317 0.32554-0.48588 0.62192v3.7315c-0.0024 0.2235 0.11418 0.43243 0.30853 0.54661 0.19435 0.11175 0.43243 0.11175 0.62678 0 0.19435-0.11418 0.31096-0.32311 0.30853-0.54661v-3.7315c0.007289-0.17977-0.065593-0.35226-0.19435-0.47373-0.13119-0.1239-0.30853-0.18463-0.48588-0.16763zm-8.8624 3.6538c-0.23322 0.0413-0.42028 0.21136-0.48588 0.43729-0.065594 0.22836 0.00243 0.4713 0.17492 0.63164l2.6432 2.6432c0.15062 0.18463 0.39113 0.26966 0.62435 0.21622 0.23079-0.053447 0.413-0.23565 0.46644-0.46644 0.053447-0.23322-0.031579-0.47373-0.21622-0.62435l-2.6432-2.6432c-0.12876-0.13847-0.31582-0.20893-0.50531-0.19435h-0.058305zm17.647 0c-0.1409 0.019435-0.27209 0.089887-0.36927 0.19435l-2.6432 2.6432c-0.18463 0.15062-0.26966 0.39113-0.21622 0.62435 0.05345 0.23079 0.23565 0.413 0.46644 0.46644 0.23322 0.053447 0.47373-0.031579 0.62435-0.21622l2.6432-2.6432c0.19435-0.18463 0.25023-0.47373 0.13604-0.71667-0.11661-0.24537-0.37412-0.38627-0.64136-0.35226zm-8.7847 3.2068c-0.01943 0.00486-0.03887 0.012146-0.0583 0.019435-0.03887 0.00242-0.07774 0.00972-0.11661 0.019435-0.0073 0.00729-0.01215 0.012146-0.01943 0.019435-3.2991 0.1409-5.9666 2.8278-5.9666 6.1609 0 3.423 2.7962 6.2192 6.2192 6.2192 3.423 0 6.2192-2.7962 6.2192-6.2192 0-3.321-2.6456-5.9982-5.9277-6.1609-0.02187 0-0.03644-0.019435-0.0583-0.019435-0.06316-0.024292-0.12876-0.036438-0.19435-0.03887h-0.03887-0.0583zm0.01943 1.2438h0.03887 0.0583c2.7209 0.031579 4.9171 2.2472 4.9171 4.9754 0 2.7501-2.2253 4.9754-4.9754 4.9754-2.7476 0-4.9754-2.2253-4.9754-4.9754 0-2.7355 2.2059-4.9535 4.9365-4.9754zm-12.575 4.3535c-0.34254 0.04859-0.58305 0.36684-0.53447 0.70938 0.048588 0.34254 0.36684 0.58305 0.70938 0.53447h3.7315c0.2235 0.0024 0.43243-0.11418 0.54661-0.30853 0.11175-0.19435 0.11175-0.43243 0-0.62678-0.11418-0.19435-0.32311-0.31096-0.54661-0.30853h-3.7315-0.058306-0.058306-0.058306zm21.145 0c-0.34254 0.04859-0.58305 0.36684-0.53446 0.70938 0.04859 0.34254 0.36684 0.58305 0.70938 0.53447h3.7315c0.2235 0.0024 0.43243-0.11418 0.54661-0.30853 0.11175-0.19435 0.11175-0.43243 0-0.62678-0.11418-0.19435-0.32311-0.31096-0.54661-0.30853h-3.7315-0.0583-0.0583-0.0583zm-14.751 6.1415c-0.1409 0.01943-0.27209 0.08988-0.36927 0.19435l-2.6432 2.6432c-0.18463 0.15062-0.26966 0.39113-0.21622 0.62435 0.053447 0.23079 0.23565 0.413 0.46644 0.46644 0.23322 0.05345 0.47373-0.03158 0.62435-0.21622l2.6432-2.6432c0.18463-0.17735 0.24051-0.45187 0.1409-0.68752-0.09717-0.23565-0.33283-0.38627-0.58791-0.38141h-0.058305zm12.244 0c-0.23322 0.0413-0.42028 0.21136-0.48588 0.43729-0.06559 0.22836 0.0024 0.4713 0.17492 0.63164l2.6432 2.6432c0.15062 0.18463 0.39113 0.26966 0.62435 0.21622 0.23079-0.05345 0.413-0.23565 0.46644-0.46644 0.05345-0.23322-0.03158-0.47373-0.21622-0.62435l-2.6432-2.6432c-0.11661-0.1239-0.27695-0.19192-0.44701-0.19435h-0.0583-0.0583zm-6.0832 2.546c-0.02672 0.0049-0.05345 0.01214-0.07774 0.01943-0.2891 0.06559-0.49317 0.32554-0.48588 0.62192v3.7315c-0.0024 0.2235 0.11418 0.43243 0.30853 0.54661 0.19435 0.11175 0.43243 0.11175 0.62678 0 0.19435-0.11418 0.31096-0.32311 0.30853-0.54661v-3.7315c0.0073-0.17977-0.06559-0.35226-0.19435-0.47373-0.13119-0.1239-0.30853-0.18463-0.48588-0.16763z" stroke-width=".62192"/></svg>
